Coordinates
version=1
nRows=19
nColumns=24
inDegrees=yes

Units are S.I. units (second, meters, Newtons, ...)
Angles are in degrees.

endheader
time	pelvis_tilt	pelvis_list	pelvis_rotation	pelvis_tx	pelvis_ty	pelvis_tz	hip_flexion_r	hip_adduction_r	hip_rotation_r	knee_angle_r	ankle_angle_r	subtalar_angle_r	mtp_angle_r	hip_flexion_l	hip_adduction_l	hip_rotation_l	knee_angle_l	ankle_angle_l	subtalar_angle_l	mtp_angle_l	lumbar_extension	lumbar_bending	lumbar_rotation
      3.05500000	     17.41530489	     -1.92505265	     -1.56741741	     -0.19939459	      0.96246377	     -0.00021385	      0.38160087	     -3.08887797	     -6.89722259	    -17.64132634	     18.86760455	      3.31828822	     26.23684887	    -27.87489964	      0.73217115	     -5.39774768	      2.90845314	     12.66955891	     18.20429955	      3.63146125	    -28.37714151	     -0.49687007	     -1.32011400
      3.06000000	     17.48418492	     -1.83113296	     -1.41281059	     -0.19526935	      0.96194688	      0.00004449	      0.16071314	     -3.05947875	     -6.78835038	    -15.68687626	     18.57440206	      3.42457453	     26.44275945	    -28.22800109	      0.74030400	     -5.34912461	      2.92814859	     12.88952804	     18.35882344	      3.66342335	    -28.45474246	     -0.53338875	     -1.45131538
      3.06500000	     17.55357817	     -1.71763850	     -1.31965953	     -0.19110448	      0.96139415	      0.00043768	     -0.08215873	     -3.03878941	     -6.52907161	    -13.69152786	     18.03672487	      3.23834480	     29.14945204	    -28.59490361	      0.79242831	     -5.42215848	      2.96440864	     13.08880421	     18.65474636	      3.55327239	    -28.52530267	     -0.61692819	     -1.57753907
      3.07000000	     17.61427616	     -1.57902035	     -1.18453993	     -0.18688883	      0.96079130	      0.00073487	     -0.31743855	     -3.06402410	     -6.39241942	    -11.79053831	     17.76162111	      3.42381566	     29.16486237	    -28.95016316	      0.84764492	     -5.38650766	      2.99986443	     13.27665114	     18.85154833	      3.56360734	    -28.58124050	     -0.69970144	     -1.72966424
      3.07500000	     17.67151844	     -1.42373161	     -1.07476200	     -0.18265937	      0.96015659	      0.00108926	     -0.55267047	     -3.10721741	     -6.21079168	     -9.93135379	     17.44369168	      3.56937121	     29.23663714	    -29.29157835	      0.92720391	     -5.40047451	      3.00805146	     13.47261395	     19.09934753	      3.56604626	    -28.63128339	     -0.80872119	     -1.85378804
      3.08000000	     17.72037452	     -1.23865803	     -0.97310215	     -0.17843256	      0.95947887	      0.00144015	     -0.76902979	     -3.19047266	     -6.04945542	     -8.15294833	     17.10586823	      3.74263110	     29.34092386	    -29.60409687	      1.03697938	     -5.41262752	      2.97381862	     13.67606365	     19.34679615	      3.56244081	    -28.67094327	     -0.94565152	     -1.96037565
      3.08500000	     17.71538818	     -1.06849198	     -0.90504243	     -0.17416203	      0.95870085	      0.00192791	     -0.93364521	     -3.24546796	     -5.76912224	     -6.40822160	     16.59629132	      3.62048709	     30.78670818	    -29.86233655	      1.13728622	     -5.52788985	      2.93800799	     13.93362283	     19.76660891	      3.20397268	    -28.64829123	     -1.08780134	     -2.06160217
      3.09000000	     17.78107476	     -0.85426346	     -0.82029124	     -0.16984768	      0.95798418	      0.00228711	     -1.14344882	     -3.37571573	     -5.67257461	     -4.83728777	     16.35313990	      3.93318861	     30.85644975	    -30.21661268	      1.28191347	     -5.50239268	      2.94100557	     14.11494882	     19.92362433	      3.19083772	    -28.69492763	     -1.25310751	     -2.16961354
      3.09500000	     17.81114052	     -0.64347087	     -0.73973572	     -0.16553032	      0.95721888	      0.00268447	     -1.30178385	     -3.49853722	     -5.56744824	     -3.36713252	     16.05625159	      4.13935670	     30.95803513	    -30.51240033	      1.41746764	     -5.52363193	      2.90148089	     14.31367028	     20.18887517	      3.17738147	    -28.70431108	     -1.41466716	     -2.26989873
      3.10000000	     17.84502196	     -0.42548314	     -0.66800574	     -0.16119940	      0.95644577	      0.00310284	     -1.44616549	     -3.63007495	     -5.48058228	     -2.01343182	     15.76691164	      4.34275568	     31.09033328	    -30.80381199	      1.56124156	     -5.55459395	      2.83765793	     14.51098205	     20.45915559	      3.15925829	    -28.71661485	     -1.58446292	     -2.34945907
      3.10500000	     17.86718359	     -0.21679658	     -0.60352216	     -0.15682047	      0.95565533	      0.00354428	     -1.55818733	     -3.75175813	     -5.41526679	     -0.79310243	     15.50169211	      4.54292918	     31.26984645	    -31.09258471	      1.69706872	     -5.59642253	      2.79013961	     14.71341805	     20.74261478	      3.13215071	    -28.70925887	     -1.74505238	     -2.43670108
      3.11000000	     17.84361107	      0.02812897	     -0.57279531	     -0.15251046	      0.95480524	      0.00399437	     -1.55706806	     -3.92055459	     -5.36187966	      0.22964412	     15.27846238	      4.80576694	     31.34628303	    -31.31587686	      1.88406364	     -5.59754681	      2.71620903	     14.89968281	     20.90165480	      3.13126656	    -28.66054451	     -1.94885963	     -2.49697959
      3.11500000	     17.92358425	      0.20295605	     -0.47719072	     -0.14805448	      0.95410791	      0.00444062	     -1.71480757	     -3.99699257	     -5.40883125	      1.21149408	     15.07775994	      4.98497656	     31.54096527	    -31.65784887	      1.96294542	     -5.65958274	      2.63413428	     15.08476267	     21.24748913	      3.11204603	    -28.70896624	     -2.05645780	     -2.55953500
      3.12000000	     17.91688509	      0.42283923	     -0.44763984	     -0.14366129	      0.95330132	      0.00491170	     -1.70256891	     -4.13402756	     -5.39444253	      1.97386895	     14.89891769	      5.21615946	     31.63341805	    -31.90583660	      2.12303434	     -5.67614208	      2.55950815	     15.26821624	     21.41722593	      3.11230605	    -28.66798829	     -2.22800439	     -2.61746643
      3.12500000	     17.96415169	      0.56973471	     -0.36705606	     -0.13914049	      0.95259145	      0.00541519	     -1.77237470	     -4.17385624	     -5.49690605	      2.66862123	     14.63887526	      5.33628694	     33.53998954	    -32.20210823	      2.17533475	     -5.79757364	      2.44093110	     15.52192066	     21.85627344	      2.68163973	    -28.67365433	     -2.30688988	     -2.66017589
      3.13000000	     18.03906902	      0.74717720	     -0.29804848	     -0.13467118	      0.95193435	      0.00588374	     -1.84584194	     -4.25351055	     -5.54561948	      3.20201511	     14.54193439	      5.50024291	     33.55910947	    -32.53902272	      2.26693248	     -5.80498219	      2.35723020	     15.65727981	     22.02956951	      2.68758345	    -28.71518178	     -2.41250711	     -2.70151365
      3.13500000	     18.09646717	      0.89655850	     -0.22630119	     -0.13013959	      0.95128225	      0.00638317	     -1.87866090	     -4.29755166	     -5.64411701	      3.58530505	     14.48178274	      5.72461768	     33.59919792	    -32.85132784	      2.32539445	     -5.85755106	      2.25131365	     15.82444413	     22.28598209	      2.70771812	    -28.72990206	     -2.48629685	     -2.74020163
      3.14000000	     18.12373875	      1.05946580	     -0.18328094	     -0.12564808	      0.95058284	      0.00690581	     -1.85473059	     -4.36203536	     -5.63717722	      3.84021723	     14.44193130	      5.86494648	     33.61260065	    -33.13229583	      2.41072273	     -5.84151589	      2.15277745	     15.97561690	     22.39492295	      2.72698795	    -28.71574394	     -2.58056854	     -2.75558531
      3.14500000	     18.26265733	      1.15383433	     -0.07888665	     -0.12099481	      0.95008826	      0.00742545	     -1.96155592	     -4.33433352	     -5.85056303	      3.96745235	     14.45413014	      6.17103743	     33.67381695	    -33.53368820	      2.39200292	     -5.96608734	      2.03236045	     16.12322793	     22.77017633	      2.77652144	    -28.80579910	     -2.57991869	     -2.79850816
